# Blender v2.79 (sub 0) OBJ File: ''
# www.blender.org
o Cube_Cube.001
v -0.500000 0.500000 -0.500000
v 0.500000 0.500000 -0.500000
v 0.500000 0.500000 0.500000
v 0.500000 -0.500000 -0.500000
v -0.500000 -0.500000 -0.500000
v 0.500000 -0.500000 0.500000
v -0.500000 0.500000 0.500000
vt 0.750000 0.250000
vt 0.250000 0.250000
vt 0.750000 0.750000
vt 0.250000 0.250000
vt 0.000000 0.000000
vt 0.000000 0.000000
vt 0.000000 0.000000
vn -0.0000 1.0000 0.0000
vn 1.0000 0.0000 0.0000
vn -0.0000 0.0000 -1.0000
vn 0.0000 0.0000 1.0000
vn 0.0000 -1.0000 0.0000
vn -0.5774 -0.5774 0.5774
vn -1.0000 0.0000 0.0000
s off
f 2/1/1 1/2/1 3/3/1
f 3/3/2 4/4/2 2/1/2
f 2/1/3 4/4/3 1/2/3
f 4/4/3 5/5/3 1/2/3
f 3/3/1 1/2/1 7/6/1
f 4/4/2 3/3/2 6/7/2
f 7/6/4 6/7/4 3/3/4
f 5/5/5 4/4/5 6/7/5
f 6/7/6 7/6/6 5/5/6
f 5/5/7 7/6/7 1/2/7
