# Blender v2.79 (sub 0) OBJ File: ''
# www.blender.org
o Cube_Cube.000
v 0.500000 -0.500000 0.500000
v -0.500000 0.500000 -0.500000
v -0.500000 -0.500000 -0.500000
v 0.500000 0.500000 -0.500000
v 0.500000 0.500000 0.500000
v 0.500000 -0.500000 -0.500000
vt 0.500000 0.000000
vt -0.000000 1.000000
vt -0.000000 0.000000
vt 0.500000 0.000000
vt -0.000000 0.000000
vt 0.500000 1.000000
vt -0.000000 0.000000
vt 0.500000 1.000000
vt 0.500000 0.000000
vt 0.500000 1.000000
vt -0.000000 1.000000
vn -0.7071 -0.0000 0.7071
vn -0.0000 1.0000 0.0000
vn 1.0000 0.0000 0.0000
vn -0.0000 0.0000 -1.0000
vn 0.0000 -1.0000 0.0000
s 1
f 1/1/1 2/2/1 3/3/1
f 4/4/2 2/5/2 5/6/2
f 5/6/3 6/7/3 4/4/3
f 4/8/4 3/3/4 2/2/4
f 3/3/5 6/9/5 1/10/5
f 1/1/1 5/6/1 2/2/1
f 5/6/3 1/11/3 6/7/3
f 4/8/4 6/9/4 3/3/4
