# Blender v2.79 (sub 0) OBJ File: ''
# www.blender.org
o Cube_Cube.001
v -0.500000 0.500000 -0.500000
v 0.500000 0.500000 -0.500000
v 0.500000 0.500000 0.500000
v 0.500000 -0.500000 -0.500000
vt 0.750000 0.250000
vt 0.250000 0.250000
vt 0.750000 0.750000
vt 0.250000 0.250000
vn -0.0000 1.0000 0.0000
vn 0.2069 -0.6918 0.6918
vn 0.2754 -0.9210 -0.2754
vn 1.0000 0.0000 0.0000
vn -0.0000 0.0000 -1.0000
vn -0.6918 -0.6918 -0.2069
s 1
f 2/1/1 1/2/1 3/3/1
f 3/3/2 4/4/3 2/1/4
f 2/1/5 4/4/3 1/2/6
f 3/3/2 1/2/6 4/4/3
