# Blender v2.79 (sub 0) OBJ File: ''
# www.blender.org
o Plane
v 0.500000 0.500000 -0.500000
v 0.500000 0.500000 0.500000
v -0.500000 0.500000 0.500000
v 0.500000 -0.500000 0.500000
v -0.500000 -0.500000 0.500000
v -0.500000 0.500000 -0.500000
v -0.500000 -0.500000 -0.500000
vt -0.000000 0.000000
vt 1.000000 0.409091
vt 0.000000 0.409091
vt 1.000000 1.000000
vt 0.000000 1.000000
vt 1.000000 -0.000000
vt -0.000000 -0.000000
vt -0.000000 0.409091
vn -0.0000 1.0000 0.0000
vn -0.0000 0.0000 1.0000
vn -1.0000 -0.0000 0.0000
s 1
f 1/1/1 3/2/1 2/3/1
f 2/3/2 5/4/2 4/5/2
f 1/1/1 6/6/1 3/2/1
f 2/3/2 3/2/2 5/4/2
f 6/6/3 7/7/3 3/2/3
f 5/8/3 3/2/3 7/7/3
