# Blender v2.79 (sub 0) OBJ File: ''
# www.blender.org
o Cube_Cube.001
v -0.500000 -0.500000 -0.500000
v -0.500000 0.500000 -0.500000
v 0.500000 -0.500000 -0.500000
v 0.500000 -0.500000 0.500000
v 0.500000 0.500000 -0.500000
v 0.500000 0.500000 0.500000
vt 0.750000 0.250000
vt 0.250000 0.750000
vt 0.250000 0.250000
vt 0.750000 0.250000
vt 0.250000 0.250000
vt 0.750000 0.750000
vt 0.250000 0.250000
vt 0.750000 0.750000
vt 0.750000 0.250000
vt 0.750000 0.750000
vt 0.250000 0.750000
vn -0.7071 -0.0000 0.7071
vn -0.0000 1.0000 0.0000
vn 1.0000 0.0000 0.0000
vn 0.0000 0.0000 -1.0000
vn 0.0000 -1.0000 0.0000
s off
f 4/1/1 2/2/1 1/3/1
f 5/4/2 2/5/2 6/6/2
f 6/6/3 3/7/3 5/4/3
f 5/8/4 1/3/4 2/2/4
f 1/3/5 3/9/5 4/10/5
f 4/1/1 6/6/1 2/2/1
f 6/6/3 4/11/3 3/7/3
f 5/8/4 3/9/4 1/3/4
