# Blender v2.79 (sub 0) OBJ File: ''
# www.blender.org
o Floor_2
v -1.623352 2.353987 3.828114
v 0.376648 2.353987 2.991372
v -1.623352 2.353987 2.991372
v 0.376648 2.353987 3.828114
v 0.376648 0.353987 2.991372
v 0.376648 0.353987 3.828114
v -1.623352 0.353987 2.991372
v -1.623352 0.353987 3.828114
vt 0.000000 0.000000
vt 1.000000 0.000000
vt 1.000000 1.000000
vt 0.000000 0.000000
vt 1.000000 0.000000
vt 1.000000 1.000000
vt 0.000000 0.000000
vt 1.000000 0.000000
vt 1.000000 1.000000
vt 0.000000 0.000000
vt 1.000000 0.000000
vt 1.000000 1.000000
vt 0.000000 0.000000
vt 1.000000 0.000000
vt 1.000000 1.000000
vt 1.000000 0.000000
vt 1.000000 0.000000
vt 1.000000 0.000000
vt 1.000000 1.000000
vn -0.0000 1.0000 0.0000
vn 1.0000 0.0000 0.0000
vn 0.0000 -1.0000 0.0000
vn -1.0000 -0.0000 0.0000
vn -0.0000 0.0000 -1.0000
vn 0.0000 0.0000 1.0000
s 1
f 1/1/1 2/2/1 3/3/1
f 4/4/2 5/5/2 2/6/2
f 6/7/3 7/8/3 5/9/3
f 8/10/4 3/11/4 7/12/4
f 5/13/5 3/11/5 2/6/5
f 4/4/6 8/14/6 6/15/6
f 1/1/1 4/16/1 2/6/1
f 4/4/2 6/17/2 5/9/2
f 6/7/3 8/14/3 7/12/3
f 8/10/4 1/18/4 3/3/4
f 5/13/5 7/8/5 3/3/5
f 4/4/6 1/18/6 8/19/6
o Floor_0
v -5.598700 7.344802 0.026687
v 6.168417 7.344804 -0.018740
v -5.598700 7.344802 -0.018740
v 6.168417 7.344804 0.026687
v 6.168420 -4.422314 -0.018740
v 6.168420 -4.422314 0.026687
v -5.598697 -4.422316 -0.018740
v -5.598697 -4.422316 0.026687
vt 0.000000 0.000000
vt 1.000000 0.000000
vt 1.000000 1.000000
vt 0.000000 0.000000
vt 1.000000 0.000000
vt 1.000000 1.000000
vt 0.000000 0.000000
vt 1.000000 0.000000
vt 1.000000 1.000000
vt 0.000000 0.000000
vt 1.000000 0.000000
vt 1.000000 1.000000
vt 0.000000 0.000000
vt 1.000000 0.000000
vt 1.000000 1.000000
vt 1.000000 0.000000
vt 1.000000 0.000000
vt 1.000000 0.000000
vt 1.000000 1.000000
vn -0.0000 1.0000 0.0000
vn 1.0000 0.0000 0.0000
vn 0.0000 -1.0000 0.0000
vn -1.0000 -0.0000 0.0000
vn 0.0000 0.0000 -1.0000
vn 0.0000 0.0000 1.0000
s 1
f 9/20/7 10/21/7 11/22/7
f 12/23/8 13/24/8 10/25/8
f 14/26/9 15/27/9 13/28/9
f 16/29/10 11/30/10 15/31/10
f 13/32/11 11/30/11 10/25/11
f 12/23/12 16/33/12 14/34/12
f 9/20/7 12/35/7 10/25/7
f 12/23/8 14/36/8 13/28/8
f 14/26/9 16/33/9 15/31/9
f 16/29/10 9/37/10 11/22/10
f 13/32/11 15/27/11 11/22/11
f 12/23/12 9/37/12 16/38/12
o Floor_1
v -1.000000 -2.086189 3.000352
v 1.000000 -2.086189 0.000352
v -1.000000 -2.086189 0.000352
v 1.000000 -2.086189 3.000352
v 1.000000 -3.086189 0.000352
v 1.000000 -3.086189 3.000352
v -1.000000 -3.086189 0.000352
v -1.000000 -3.086189 3.000352
v 0.753369 2.353986 2.336509
v 2.753369 2.353987 0.336509
v 0.753369 2.353986 0.336509
v 2.753369 2.353987 2.336509
v 2.753369 0.353986 0.336509
v 2.753369 0.353986 2.336509
v 0.753369 0.353986 0.336509
v 0.753369 0.353986 2.336509
vt 0.000000 0.000000
vt 1.000000 0.000000
vt 1.000000 1.000000
vt 0.000000 0.000000
vt 1.000000 0.000000
vt 1.000000 1.000000
vt 0.000000 0.000000
vt 1.000000 0.000000
vt 1.000000 1.000000
vt 0.000000 0.000000
vt 1.000000 0.000000
vt 1.000000 1.000000
vt 0.000000 0.000000
vt 1.000000 0.000000
vt 1.000000 1.000000
vt 0.000000 0.000000
vt 1.000000 0.000000
vt 1.000000 1.000000
vt 0.000000 0.000000
vt 1.000000 0.000000
vt 1.000000 1.000000
vt 0.000000 0.000000
vt 1.000000 0.000000
vt 1.000000 1.000000
vt 0.000000 0.000000
vt 1.000000 0.000000
vt 1.000000 1.000000
vt 0.000000 0.000000
vt 1.000000 0.000000
vt 1.000000 1.000000
vt 1.000000 0.000000
vt 1.000000 0.000000
vt 1.000000 0.000000
vt 1.000000 1.000000
vt 1.000000 0.000000
vt 1.000000 0.000000
vt 1.000000 0.000000
vt 1.000000 1.000000
vn -0.0000 1.0000 0.0000
vn 1.0000 0.0000 0.0000
vn 0.0000 -1.0000 0.0000
vn -1.0000 -0.0000 0.0000
vn 0.0000 0.0000 -1.0000
vn -0.0000 0.0000 1.0000
s 1
f 17/39/13 18/40/13 19/41/13
f 20/42/14 21/43/14 18/44/14
f 22/45/15 23/46/15 21/47/15
f 24/48/16 19/49/16 23/50/16
f 21/51/17 19/49/17 18/44/17
f 20/42/18 24/52/18 22/53/18
f 25/54/13 26/55/13 27/56/13
f 28/57/14 29/58/14 26/59/14
f 30/60/15 31/61/15 29/62/15
f 32/63/16 27/64/16 31/65/16
f 29/66/17 27/64/17 26/59/17
f 28/57/18 32/67/18 30/68/18
f 17/39/13 20/69/13 18/44/13
f 20/42/14 22/70/14 21/47/14
f 22/45/15 24/52/15 23/50/15
f 24/48/16 17/71/16 19/41/16
f 21/51/17 23/46/17 19/41/17
f 20/42/18 17/71/18 24/72/18
f 25/54/13 28/73/13 26/59/13
f 28/57/14 30/74/14 29/62/14
f 30/60/15 32/67/15 31/65/15
f 32/63/16 25/75/16 27/56/16
f 29/66/17 31/61/17 27/56/17
f 28/57/18 25/75/18 32/76/18
